<?xml version="1.0"?>
<svg width="24" height="24" xmlns="http://www.w3.org/2000/svg" xmlns:svg="http://www.w3.org/2000/svg">
 <g class="layer">
  <title>Layer 1</title>
  <path d="m12,2a1,1 0 0 0 -0.71,0.3l-10.09,8.8a0.5,0.5 0 0 0 -0.2,0.4a0.5,0.5 0 0 0 0.5,0.5l2.5,0l0,8c0,0.55 0.45,1 1,1l4,0c0.55,0 1,-0.45 1,-1l0,-6l4,0l0,6c0,0.55 0.45,1 1,1l4,0c0.55,0 1,-0.45 1,-1l0,-8l2.5,0a0.5,0.5 0 0 0 0.5,-0.5a0.5,0.5 0 0 0 -0.2,-0.4l-10.08,-8.8a1,1 0 0 0 -0.01,0a1,1 0 0 0 -0.71,-0.3z" fill="#ffffff" id="svg_1"/>
 </g>
</svg>